<?xml version="1.0" encoding="utf-8"?>
<!DOCTYPE svg PUBLIC "-//W3C//DTD SVG 20010904//EN" "http://www.w3.org/TR/2001/REC-SVG-20010904/DTD/svg10.dtd">
<svg version="1.0" xmlns="http://www.w3.org/2000/svg" width="1411px" height="577px" viewBox="0 0 1411 577" preserveAspectRatio="xMidYMid meet">
 <g fill="#2d2622">
  <path d="M1181.76 511.24 c-2.80 -1.40 -6.20 -7 -9.59 -15.59 -7 -18.19 -12.79 -23.18 -36.57 -30.98 -18.39 -6 -25.98 -14.99 -32.38 -37.77 l-3.40 -11.99 -13.79 -2.40 c-7.59 -1.20 -18.79 -4.40 -24.78 -7 -8.99 -3.80 -14.79 -4.60 -31.38 -4.80 -17.99 0 -20.99 -0.60 -26.38 -4.60 -4.20 -3 -7.79 -4.20 -10.39 -3.40 -6.20 2 -23.38 -2.80 -29.98 -8.59 -3.40 -2.60 -10.19 -5.80 -15.19 -6.60 -21.78 -4.20 -34.58 -18.59 -34.58 -38.97 0 -5.40 -1.40 -13.79 -3.20 -18.79 -6.20 -17.19 -0.60 -38.77 14.59 -55.96 4.20 -5 9.39 -12.99 11.19 -17.79 3.20 -8.59 3.20 -8.99 -0.60 -11.59 -6 -4.20 -9.99 -13.39 -9.99 -22.58 0 -13.39 4.60 -16.39 36.97 -22.98 15.39 -3 28.98 -6.20 30.18 -6.80 1.40 -0.60 7.19 -8.39 12.99 -17.19 20.39 -30.78 53.16 -58.36 85.34 -71.95 96.13 -40.37 206.05 -0.80 241.63 86.94 15.39 38.17 13.99 94.93 -3.60 139.90 -5.60 14.59 -5.60 14.99 -2 17.99 8.19 6.60 10.39 17.79 5.40 27.58 -4.20 8.19 -11.19 10.99 -23.78 9.99 l-10.99 -1 -1.40 7.19 c-4.40 22.98 -22.98 45.77 -42.17 51.36 -8.19 2.20 -14.79 6 -21.58 12.19 -5.20 4.80 -11.79 9.19 -14.39 9.79 -6 1.60 -6.20 7 -0.80 21.18 5.80 15.19 5.20 20.19 -3 27.18 -6.40 5.80 -18.19 10.59 -24.98 10.19 -1.60 0 -5 -1 -7.39 -2.20z m17.79 -10.59 c2.80 -0.80 6.80 -3.20 8.79 -5.20 3.40 -3.80 3.40 -4.40 -0.80 -16.39 -2.20 -6.80 -4.80 -15.19 -5.40 -18.79 -0.80 -4.40 -2.60 -6.60 -6.20 -7.39 -7.59 -2 -21.78 -17.19 -25.78 -27.78 -2 -5.20 -4 -9.39 -4.80 -9.39 -0.60 0 -5.60 2.20 -10.99 5 -10.99 5.60 -20.39 6.20 -32.18 2 -4.40 -1.60 -8.59 -3 -9.39 -3 -2.60 0 6.60 22.58 10.99 27.38 2.20 2.40 11.19 6.80 20.19 9.79 13.19 4.40 17.99 7 25.18 14.59 5.80 5.80 9.99 12.59 11.79 18.19 3.20 10.99 5.80 14.39 9.99 13.19 1.80 -0.60 5.60 -1.60 8.59 -2.20z m26.78 -64.95 c7.99 -7 13.79 -10.39 19.39 -11.39 13.19 -2 25.38 -11.79 32.98 -26.38 3.60 -7 6.20 -12.99 5.80 -13.59 -0.40 -0.40 -5.20 1.40 -10.59 3.80 -7.99 3.80 -13.39 4.60 -29.58 4.60 -18.99 0 -20.19 0.20 -25.78 5.60 -9.19 8.59 -16.99 11.79 -30.78 12.99 -7 0.40 -12.59 1.40 -12.59 1.80 0 2.80 10.39 20.39 14.39 23.98 12.39 11.59 22.38 11.19 36.77 -1.40z m-80.74 -21.98 c2.40 0 7.79 -3.80 12.19 -8.39 7.39 -7.79 8.19 -8.19 14.19 -6 18.39 6.80 41.77 -3.40 44.17 -19.19 0.60 -4 3.60 -12.19 6.40 -17.99 2.80 -6 4.20 -11.39 3.40 -12.19 -1 -0.80 -13.99 -6 -28.78 -11.39 -20.99 -7.59 -29.58 -9.79 -38.77 -9.79 -11.79 0 -18.19 -4 -8.79 -5.40 3 -0.40 -3.60 -3.80 -20.39 -10.39 -13.79 -5.40 -44.97 -17.59 -69.35 -27.18 -35.18 -13.79 -44.57 -16.79 -45.37 -14.59 -0.60 1.60 -1.20 8.59 -1.20 15.39 l0 12.39 24.18 -0.20 c13.19 0 24.58 0.60 24.98 1.40 0.60 0.80 -1.40 3 -4.20 4.80 -4.20 2.60 -7.79 3 -18.99 2 -9.99 -1 -16.59 -0.60 -24.18 1.60 -17.19 5.20 -18.79 4.60 -33.58 -10.79 l-13.39 -13.99 -13.99 0 c-15.39 0 -28.98 5 -32.58 11.59 -3 5.80 -2.80 16.39 0.60 26.18 1.60 4.40 2.80 11.59 2.60 15.79 -0.60 16.79 8.79 26.78 27.58 29.38 6 1 11.99 3.20 14.99 6 7.59 6.80 12.79 8.99 21.78 8.99 7.39 0 8.19 -0.40 8.19 -5 0 -15.19 -10.99 -25.78 -29.38 -28.18 -5.80 -0.60 -11.19 -2.20 -11.79 -3.20 -2.40 -3.80 4 -5.80 13.99 -4.60 20.79 2.60 30.58 12.59 35.97 37.37 2 8.59 6.40 11.59 17.39 11.59 10.19 0 30.78 -6 38.77 -11.19 8.19 -5.40 12.19 -21.18 5.80 -23.58 -4.80 -1.80 -12.59 -1.40 -16.79 0.80 -2.60 1.40 -4.20 1.40 -5 0 -3.80 -6.20 13.19 -13.19 23.18 -9.59 14.99 5.20 12.59 27.18 -4.20 39.37 l-8.59 6.20 9.79 4.20 c6.80 3.20 14.59 4.60 25.18 5 12.99 0.40 16.39 1.20 22.18 5.60 6.80 5.20 20.19 9.39 24.98 7.99 1.60 -0.40 4.60 -0.80 6.80 -0.80z m127.11 -37.17 c6 -3 9.99 -6 8.99 -6.80 -1.80 -1.60 -43.57 -15.99 -46.57 -15.99 -1 0 -2 1.40 -2 3.20 0 1.80 -1.80 5.80 -4.20 8.99 -5.60 7.99 -4.40 14.39 3.20 16.19 10.59 2.40 29.38 -0.20 40.57 -5.60z m42.37 -21.58 c0 -1.40 -2.80 -3.80 -6.20 -5.20 -5.80 -2.40 -6 -3 -5.20 -11.79 0.40 -5 4 -17.19 7.99 -27.18 33.58 -85.14 5.20 -162.88 -72.75 -199.86 -44.97 -21.18 -94.93 -21.38 -140.90 -0.20 -31.18 14.39 -58.96 38.77 -78.34 67.95 -5.60 8.79 -10.59 16.59 -10.79 17.59 -0.40 1 -14.99 4.80 -32.58 8.39 -23.38 4.80 -31.98 7.19 -31.98 9.39 0 1.60 5 5.20 10.99 8.19 35.18 16.99 242.63 97.93 319.77 124.71 31.98 11.19 39.97 12.79 39.97 7.99z m-309.78 -64.95 c0 -7.59 0.60 -16.19 1.20 -19.39 1 -5.80 0.80 -5.80 -24.58 -16.19 -13.99 -5.80 -26.98 -10.99 -28.78 -11.59 -2.40 -1 -4.40 1.40 -7.79 9.39 -2.40 5.80 -7.59 13.99 -11.59 17.99 -4 4.20 -6.60 7.99 -6.20 8.59 0.60 0.40 4.20 0 7.99 -1.20 3.80 -1 11.99 -2 18.19 -2 13.99 0 25.18 5.40 32.78 15.59 7 9.59 10.59 12.59 15.19 12.59 3.20 0 3.60 -1.80 3.60 -13.79z"/>
  <path d="M1140.79 385.93 c-3.80 -6.80 -16.39 -11.19 -25.78 -9.19 -7.19 1.60 -10.79 -0.40 -7.59 -4.20 3 -3.60 19.79 -3.60 28.38 0 6.80 2.80 13.39 10.79 13.39 16.19 0 5 -4.80 3.40 -8.39 -2.80z"/>
  <path d="M427.10 421.70 c-28.98 -4.60 -69.15 -19.79 -67.95 -25.58 0.40 -1.20 5.20 -12.59 10.79 -24.98 l9.99 -22.78 12.39 6.60 c41.77 21.98 104.53 21.98 106.92 0 2 -16.39 -3 -19.39 -52.16 -31.98 -40.77 -10.39 -53.56 -15.59 -65.95 -27.18 -13.79 -12.59 -18.19 -23.38 -18.19 -44.97 -0.20 -15.39 0.60 -19.59 5.20 -29.38 9.79 -20.99 31.18 -37.17 58.76 -44.37 30.18 -7.79 70.75 -5.80 103.73 5 27.98 9.39 27.18 7.39 15.79 34.78 -5.20 12.59 -10.19 23.58 -10.99 24.18 -1 0.40 -5 -0.80 -9.19 -2.80 -19.79 -10.19 -49.76 -15.99 -69.35 -13.59 -28.18 3.60 -38.57 27.58 -15.99 37.37 4.60 2.20 21.38 6.80 37.17 10.79 31.78 7.59 49.37 13.39 58.56 19.59 21.18 14.39 28.98 28.38 28.98 53.36 0 14.59 -0.80 18.79 -5.80 28.98 -9.79 20.59 -30.58 36.57 -57.36 43.97 -13.99 3.80 -58.56 5.60 -75.35 3z"/>
  <path d="M107.92 298.99 l0 -121.11 73.55 0 c79.34 0 90.94 1.20 109.72 10.79 14.19 7.19 20.99 13.39 27.58 25.58 5 8.99 5.80 12.79 5.80 25.58 0.20 19.19 -5 30.38 -20.19 43.77 l-11.19 9.99 6.80 2.80 c37.57 16.19 49.17 65.55 22.58 95.13 -4.60 5.20 -13.39 11.79 -19.39 14.79 -22.58 10.99 -29.78 11.79 -115.72 12.79 l-79.54 1 0 -121.11z m146.90 67.75 c20.99 -10.39 17.99 -38.57 -4.80 -44.97 -4 -1 -22.78 -2 -41.57 -2 l-34.58 0 0 26.18 0 26.18 36.57 -0.80 c30.98 -0.60 37.57 -1.40 44.37 -4.60z m-9.39 -97.53 c12.59 -6.80 15.79 -25.78 5.80 -34.98 -7.59 -7.19 -14.59 -8.39 -46.57 -8.39 l-30.78 0 0 24.18 0 24.18 32.58 -0.80 c26.58 -0.60 33.58 -1.20 38.97 -4.20z"/>
  <path d="M599.58 298.79 l0 -120.91 74.55 0 c67.35 0 76.15 0.40 89.94 3.80 18.39 4.80 24.98 8.19 35.77 17.79 26.18 23.58 22.78 68.15 -6.60 87.74 l-7.99 5.20 10.59 5.80 c21.38 11.39 33.58 31.18 33.58 54.36 0 37.77 -26.38 59.76 -77.94 65.15 -10.39 1 -48.97 2 -85.34 2 l-66.55 0 0 -120.91z m149.09 67.55 c9.19 -4.80 12.79 -11.19 12.79 -22.78 0 -9.99 -7.39 -18.39 -19.19 -21.58 -4.20 -1.20 -23.38 -2.20 -42.17 -2.20 l-34.58 0 0 24.58 c0 13.59 0.60 25.38 1.60 26.18 0.80 1 17.59 1.20 37.37 0.80 31.58 -0.80 36.97 -1.40 44.17 -5z m-16.79 -94.53 c17.19 -4.80 23.78 -26.58 11.59 -37.97 -7.59 -7.19 -12.79 -7.99 -48.17 -7.99 l-29.78 0 0 23.98 0 23.98 29.58 0 c16.19 0 32.78 -1 36.77 -2z"/>
 </g>
 <g fill="#ffd600">
  <path d="M1272.10 353.95 c-71.35 -24.58 -264.41 -99.53 -321.37 -124.71 -8.19 -3.80 -11.99 -6.80 -13.59 -10.79 -4.20 -11.19 -1.40 -12.79 33.38 -19.99 17.39 -3.40 31.98 -7.19 32.38 -8.19 2.20 -7 23.78 -35.77 35.37 -47.57 23.78 -23.98 51.76 -40.17 85.14 -49.17 23.58 -6.20 67.35 -6.20 90.74 0.20 40.77 10.99 75.75 35.37 95.53 66.55 16.39 25.58 22.18 47.17 21.98 81.54 0 28.98 -3.60 48.17 -13.79 74.95 -9.99 25.38 -9.79 24.38 -5 25.98 10.19 3.20 14.19 16.79 6.40 20.99 -6.60 3.40 -11.99 2.40 -47.17 -9.79z"/>
 </g>
</svg>