<?xml version="1.0" encoding="UTF-8" standalone="no"?>
<svg
   version="1.0"
   width="1235.1686"
   height="436.34796"
   viewBox="0 0 1235.1685 436.34796"
   preserveAspectRatio="xMidYMid meet"
   id="svg866"
   sodipodi:docname="bsb.svg"
   inkscape:version="1.1.2 (b8e25be833, 2022-02-05)"
   xmlns:inkscape="http://www.inkscape.org/namespaces/inkscape"
   xmlns:sodipodi="http://sodipodi.sourceforge.net/DTD/sodipodi-0.dtd"
   xmlns="http://www.w3.org/2000/svg"
   xmlns:svg="http://www.w3.org/2000/svg">
  <defs
     id="defs870" />
  <sodipodi:namedview
     id="namedview868"
     pagecolor="#ffffff"
     bordercolor="#666666"
     borderopacity="1.0"
     inkscape:pageshadow="2"
     inkscape:pageopacity="0.0"
     inkscape:pagecheckerboard="0"
     showgrid="false"
     lock-margins="true"
     fit-margin-top="0"
     fit-margin-left="0"
     fit-margin-right="0"
     fit-margin-bottom="0"
     inkscape:zoom="1.0595322"
     inkscape:cx="596.48963"
     inkscape:cy="211.41405"
     inkscape:window-width="2560"
     inkscape:window-height="1494"
     inkscape:window-x="-11"
     inkscape:window-y="-11"
     inkscape:window-maximized="1"
     inkscape:current-layer="svg866" />
  <g
     fill="#2d2622"
     id="g860"
     transform="translate(-107.92,-77.075413)">
    <path
       d="m 1181.76,511.24 c -2.8,-1.4 -6.2,-7 -9.59,-15.59 -7,-18.19 -12.79,-23.18 -36.57,-30.98 -18.39,-6 -25.98,-14.99 -32.38,-37.77 l -3.4,-11.99 -13.79,-2.4 c -7.59,-1.2 -18.79,-4.4 -24.78,-7 -8.99,-3.8 -14.79,-4.6 -31.38,-4.8 -17.99,0 -20.99,-0.6 -26.38,-4.6 -4.2,-3 -7.79,-4.2 -10.39,-3.4 -6.2,2 -23.38,-2.8 -29.98,-8.59 -3.4,-2.6 -10.19,-5.8 -15.19,-6.6 -21.78,-4.2 -34.58,-18.59 -34.58,-38.97 0,-5.4 -1.4,-13.79 -3.2,-18.79 -6.2,-17.19 -0.6,-38.77 14.59,-55.96 4.2,-5 9.39,-12.99 11.19,-17.79 3.2,-8.59 3.2,-8.99 -0.6,-11.59 -6,-4.2 -9.99,-13.39 -9.99,-22.58 0,-13.39 4.6,-16.39 36.97,-22.98 15.39,-3 28.98,-6.2 30.18,-6.8 1.4,-0.6 7.19,-8.39 12.99,-17.19 20.39,-30.78 53.16,-58.36 85.34,-71.95 96.13,-40.37 206.05,-0.8 241.63,86.94 15.39,38.17 13.99,94.93 -3.6,139.9 -5.6,14.59 -5.6,14.99 -2,17.99 8.19,6.6 10.39,17.79 5.4,27.58 -4.2,8.19 -11.19,10.99 -23.78,9.99 l -10.99,-1 -1.4,7.19 c -4.4,22.98 -22.98,45.77 -42.17,51.36 -8.19,2.2 -14.79,6 -21.58,12.19 -5.2,4.8 -11.79,9.19 -14.39,9.79 -6,1.6 -6.2,7 -0.8,21.18 5.8,15.19 5.2,20.19 -3,27.18 -6.4,5.8 -18.19,10.59 -24.98,10.19 -1.6,0 -5,-1 -7.39,-2.2 z m 17.79,-10.59 c 2.8,-0.8 6.8,-3.2 8.79,-5.2 3.4,-3.8 3.4,-4.4 -0.8,-16.39 -2.2,-6.8 -4.8,-15.19 -5.4,-18.79 -0.8,-4.4 -2.6,-6.6 -6.2,-7.39 -7.59,-2 -21.78,-17.19 -25.78,-27.78 -2,-5.2 -4,-9.39 -4.8,-9.39 -0.6,0 -5.6,2.2 -10.99,5 -10.99,5.6 -20.39,6.2 -32.18,2 -4.4,-1.6 -8.59,-3 -9.39,-3 -2.6,0 6.6,22.58 10.99,27.38 2.2,2.4 11.19,6.8 20.19,9.79 13.19,4.4 17.99,7 25.18,14.59 5.8,5.8 9.99,12.59 11.79,18.19 3.2,10.99 5.8,14.39 9.99,13.19 1.8,-0.6 5.6,-1.6 8.59,-2.2 z m 26.78,-64.95 c 7.99,-7 13.79,-10.39 19.39,-11.39 13.19,-2 25.38,-11.79 32.98,-26.38 3.6,-7 6.2,-12.99 5.8,-13.59 -0.4,-0.4 -5.2,1.4 -10.59,3.8 -7.99,3.8 -13.39,4.6 -29.58,4.6 -18.99,0 -20.19,0.2 -25.78,5.6 -9.19,8.59 -16.99,11.79 -30.78,12.99 -7,0.4 -12.59,1.4 -12.59,1.8 0,2.8 10.39,20.39 14.39,23.98 12.39,11.59 22.38,11.19 36.77,-1.4 z m -80.74,-21.98 c 2.4,0 7.79,-3.8 12.19,-8.39 7.39,-7.79 8.19,-8.19 14.19,-6 18.39,6.8 41.77,-3.4 44.17,-19.19 0.6,-4 3.6,-12.19 6.4,-17.99 2.8,-6 4.2,-11.39 3.4,-12.19 -1,-0.8 -13.99,-6 -28.78,-11.39 -20.99,-7.59 -29.58,-9.79 -38.77,-9.79 -11.79,0 -18.19,-4 -8.79,-5.4 3,-0.4 -3.6,-3.8 -20.39,-10.39 -13.79,-5.4 -44.97,-17.59 -69.35,-27.18 -35.18,-13.79 -44.57,-16.79 -45.37,-14.59 -0.6,1.6 -1.2,8.59 -1.2,15.39 V 299 l 24.18,-0.2 c 13.19,0 24.58,0.6 24.98,1.4 0.6,0.8 -1.4,3 -4.2,4.8 -4.2,2.6 -7.79,3 -18.99,2 -9.99,-1 -16.59,-0.6 -24.18,1.6 -17.19,5.2 -18.79,4.6 -33.58,-10.79 l -13.39,-13.99 h -13.99 c -15.39,0 -28.98,5 -32.58,11.59 -3,5.8 -2.8,16.39 0.6,26.18 1.6,4.4 2.8,11.59 2.6,15.79 -0.6,16.79 8.79,26.78 27.58,29.38 6,1 11.99,3.2 14.99,6 7.59,6.8 12.79,8.99 21.78,8.99 7.39,0 8.19,-0.4 8.19,-5 0,-15.19 -10.99,-25.78 -29.38,-28.18 -5.8,-0.6 -11.19,-2.2 -11.79,-3.2 -2.4,-3.8 4,-5.8 13.99,-4.6 20.79,2.6 30.58,12.59 35.97,37.37 2,8.59 6.4,11.59 17.39,11.59 10.19,0 30.78,-6 38.77,-11.19 8.19,-5.4 12.19,-21.18 5.8,-23.58 -4.8,-1.8 -12.59,-1.4 -16.79,0.8 -2.6,1.4 -4.2,1.4 -5,0 -3.8,-6.2 13.19,-13.19 23.18,-9.59 14.99,5.2 12.59,27.18 -4.2,39.37 l -8.59,6.2 9.79,4.2 c 6.8,3.2 14.59,4.6 25.18,5 12.99,0.4 16.39,1.2 22.18,5.6 6.8,5.2 20.19,9.39 24.98,7.99 1.6,-0.4 4.6,-0.8 6.8,-0.8 z m 127.11,-37.17 c 6,-3 9.99,-6 8.99,-6.8 -1.8,-1.6 -43.57,-15.99 -46.57,-15.99 -1,0 -2,1.4 -2,3.2 0,1.8 -1.8,5.8 -4.2,8.99 -5.6,7.99 -4.4,14.39 3.2,16.19 10.59,2.4 29.38,-0.2 40.57,-5.6 z m 42.37,-21.58 c 0,-1.4 -2.8,-3.8 -6.2,-5.2 -5.8,-2.4 -6,-3 -5.2,-11.79 0.4,-5 4,-17.19 7.99,-27.18 33.58,-85.14 5.2,-162.88 -72.75,-199.86 -44.97,-21.18 -94.93,-21.38 -140.9,-0.2 -31.18,14.39 -58.96,38.77 -78.34,67.95 -5.6,8.79 -10.59,16.59 -10.79,17.59 -0.4,1 -14.99,4.8 -32.58,8.39 -23.38,4.8 -31.98,7.19 -31.98,9.39 0,1.6 5,5.2 10.99,8.19 35.18,16.99 242.63,97.93 319.77,124.71 31.98,11.19 39.97,12.79 39.97,7.99 z m -309.78,-64.95 c 0,-7.59 0.6,-16.19 1.2,-19.39 1,-5.8 0.8,-5.8 -24.58,-16.19 -13.99,-5.8 -26.98,-10.99 -28.78,-11.59 -2.4,-1 -4.4,1.4 -7.79,9.39 -2.4,5.8 -7.59,13.99 -11.59,17.99 -4,4.2 -6.6,7.99 -6.2,8.59 0.6,0.4 4.2,0 7.99,-1.2 3.8,-1 11.99,-2 18.19,-2 13.99,0 25.18,5.4 32.78,15.59 7,9.59 10.59,12.59 15.19,12.59 3.2,0 3.6,-1.8 3.6,-13.79 z"
       id="path850" />
    <path
       d="m 1140.79,385.93 c -3.8,-6.8 -16.39,-11.19 -25.78,-9.19 -7.19,1.6 -10.79,-0.4 -7.59,-4.2 3,-3.6 19.79,-3.6 28.38,0 6.8,2.8 13.39,10.79 13.39,16.19 0,5 -4.8,3.4 -8.39,-2.8 z"
       id="path852" />
    <path
       d="m 427.1,421.7 c -28.98,-4.6 -69.15,-19.79 -67.95,-25.58 0.4,-1.2 5.2,-12.59 10.79,-24.98 l 9.99,-22.78 12.39,6.6 c 41.77,21.98 104.53,21.98 106.92,0 2,-16.39 -3,-19.39 -52.16,-31.98 -40.77,-10.39 -53.56,-15.59 -65.95,-27.18 -13.79,-12.59 -18.19,-23.38 -18.19,-44.97 -0.2,-15.39 0.6,-19.59 5.2,-29.38 9.79,-20.99 31.18,-37.17 58.76,-44.37 30.18,-7.79 70.75,-5.8 103.73,5 27.98,9.39 27.18,7.39 15.79,34.78 -5.2,12.59 -10.19,23.58 -10.99,24.18 -1,0.4 -5,-0.8 -9.19,-2.8 -19.79,-10.19 -49.76,-15.99 -69.35,-13.59 -28.18,3.6 -38.57,27.58 -15.99,37.37 4.6,2.2 21.38,6.8 37.17,10.79 31.78,7.59 49.37,13.39 58.56,19.59 21.18,14.39 28.98,28.38 28.98,53.36 0,14.59 -0.8,18.79 -5.8,28.98 -9.79,20.59 -30.58,36.57 -57.36,43.97 -13.99,3.8 -58.56,5.6 -75.35,3 z"
       id="path854" />
    <path
       d="M 107.92,298.99 V 177.88 h 73.55 c 79.34,0 90.94,1.2 109.72,10.79 14.19,7.19 20.99,13.39 27.58,25.58 5,8.99 5.8,12.79 5.8,25.58 0.2,19.19 -5,30.38 -20.19,43.77 l -11.19,9.99 6.8,2.8 c 37.57,16.19 49.17,65.55 22.58,95.13 -4.6,5.2 -13.39,11.79 -19.39,14.79 C 280.6,417.3 273.4,418.1 187.46,419.1 l -79.54,1 z m 146.9,67.75 c 20.99,-10.39 17.99,-38.57 -4.8,-44.97 -4,-1 -22.78,-2 -41.57,-2 h -34.58 v 26.18 26.18 l 36.57,-0.8 c 30.98,-0.6 37.57,-1.4 44.37,-4.6 z m -9.39,-97.53 c 12.59,-6.8 15.79,-25.78 5.8,-34.98 -7.59,-7.19 -14.59,-8.39 -46.57,-8.39 h -30.78 v 24.18 24.18 l 32.58,-0.8 c 26.58,-0.6 33.58,-1.2 38.97,-4.2 z"
       id="path856" />
    <path
       d="M 599.58,298.79 V 177.88 h 74.55 c 67.35,0 76.15,0.4 89.94,3.8 18.39,4.8 24.98,8.19 35.77,17.79 26.18,23.58 22.78,68.15 -6.6,87.74 l -7.99,5.2 10.59,5.8 c 21.38,11.39 33.58,31.18 33.58,54.36 0,37.77 -26.38,59.76 -77.94,65.15 -10.39,1 -48.97,2 -85.34,2 H 599.59 V 298.81 Z m 149.09,67.55 c 9.19,-4.8 12.79,-11.19 12.79,-22.78 0,-9.99 -7.39,-18.39 -19.19,-21.58 -4.2,-1.2 -23.38,-2.2 -42.17,-2.2 h -34.58 v 24.58 c 0,13.59 0.6,25.38 1.6,26.18 0.8,1 17.59,1.2 37.37,0.8 31.58,-0.8 36.97,-1.4 44.17,-5 z m -16.79,-94.53 c 17.19,-4.8 23.78,-26.58 11.59,-37.97 -7.59,-7.19 -12.79,-7.99 -48.17,-7.99 h -29.78 v 23.98 23.98 h 29.58 c 16.19,0 32.78,-1 36.77,-2 z"
       id="path858" />
  </g>
  <g
     fill="#ffd600"
     id="g864"
     transform="translate(-107.92,-77.075413)">
    <path
       d="m 1272.1,353.95 c -71.35,-24.58 -264.41,-99.53 -321.37,-124.71 -8.19,-3.8 -11.99,-6.8 -13.59,-10.79 -4.2,-11.19 -1.4,-12.79 33.38,-19.99 17.39,-3.4 31.98,-7.19 32.38,-8.19 2.2,-7 23.78,-35.77 35.37,-47.57 23.78,-23.98 51.76,-40.17 85.14,-49.17 23.58,-6.2 67.35,-6.2 90.74,0.2 40.77,10.99 75.75,35.37 95.53,66.55 16.39,25.58 22.18,47.17 21.98,81.54 0,28.98 -3.6,48.17 -13.79,74.95 -9.99,25.38 -9.79,24.38 -5,25.98 10.19,3.2 14.19,16.79 6.4,20.99 -6.6,3.4 -11.99,2.4 -47.17,-9.79 z"
       id="path862" />
  </g>
</svg>
