<?xml version="1.0" encoding="utf-8"?>
<!DOCTYPE svg PUBLIC "-//W3C//DTD SVG 20010904//EN" "http://www.w3.org/TR/2001/REC-SVG-20010904/DTD/svg10.dtd">
<svg version="1.0" xmlns="http://www.w3.org/2000/svg" width="466px" height="446px" viewBox="0 0 466 446" preserveAspectRatio="xMidYMid meet">
 <g fill="#2f2a26">
  <path d="M291.5 439.6 c-4.9 -2.1 -8.2 -7 -10.9 -15.9 -4.8 -15.7 -11.5 -22.5 -27.6 -27.8 -14.5 -4.8 -23 -9.1 -27.9 -14 -4.9 -4.8 -10.8 -16.6 -13.4 -26.4 -0.9 -3.3 -2.1 -7.8 -2.6 -10.1 l-1.1 -4.1 -9.7 -0.6 c-11.5 -0.7 -16.6 -2.1 -32.7 -8.9 l-11.9 -5.1 -9.4 1.8 c-14.1 2.7 -24.4 1.1 -32.4 -4.8 -4.2 -3.1 -4.8 -3.2 -13.9 -3.2 -11.8 0 -17.8 -1.9 -26.7 -8.7 -5.7 -4.3 -7.5 -5.1 -14.6 -6.3 -10.9 -1.9 -19.3 -6.2 -25.6 -13 -6.9 -7.6 -9.2 -14.2 -9.6 -27 -0.2 -7.5 -0.8 -11.5 -2.6 -16 -3.3 -8.7 -3.4 -27.3 -0.2 -35.9 3.2 -8.5 7.9 -15.9 15 -23.6 4.5 -4.8 6.9 -8.5 8.7 -13.2 1.3 -3.6 3.1 -7.9 4 -9.7 0.9 -1.7 1.2 -3.1 0.7 -3.1 -2.1 0 -8.3 -6.5 -10.6 -11.1 -6.2 -12 -3.1 -27 6.2 -30.8 1.6 -0.6 15.9 -3.8 31.8 -7.1 16 -3.3 29.1 -6.5 29.3 -7 0.2 -0.5 2.8 -4.9 5.8 -9.7 32.4 -51.7 81.6 -84.1 140.5 -92.7 13.6 -2 41 -2 54.8 -0.1 34.6 4.9 66.7 18.9 92.1 40.1 27.9 23.2 45.7 53.7 53.3 90.8 3.1 15.9 3.1 48.5 -0.1 66.1 -2.7 15.1 -7.9 34.2 -12.7 46.5 -2 5.2 -3.9 10.3 -4.2 11.2 -0.3 1.1 0.7 2.8 3 4.8 12.8 11.2 9.1 32.4 -6.6 37.6 -4.7 1.6 -11 1.5 -19.8 -0.3 -2.4 -0.4 -2.6 -0.1 -3.8 5.4 -2.9 13 -10.8 28.5 -19.4 37.9 -8.7 9.6 -15.5 13.2 -32.5 17.4 -3.3 0.8 -6.3 3.1 -13.1 9.5 -6.5 6.1 -10.2 8.8 -14 10.1 -3.1 1.2 -5.1 2.5 -5.1 3.4 0 3.5 3.2 14.7 6 21 1.7 3.8 3 8.5 3 10.5 0 9.9 -10.5 19.4 -24.8 22.4 -6.8 1.4 -11 1.3 -14.7 -0.3z m16.7 -12.3 c5.2 -1.6 9.2 -4.4 10.9 -7.4 0.8 -1.6 0.3 -3.8 -2.5 -10.7 -1.9 -4.8 -4.3 -12.7 -5.2 -17.5 l-1.7 -8.8 -7.4 -3.5 c-10.3 -4.9 -16.1 -11.1 -22.3 -23.7 -2.7 -5.6 -5 -10.8 -5 -11.4 0 -1.9 -0.4 -1.7 -7.6 2.6 -13.1 7.9 -26.5 8.1 -44.6 0.6 -1.5 -0.6 -1.2 1 1.7 9.6 5.8 17.2 8.3 19.5 27.8 26.4 16.5 5.8 20 7.6 26.3 13.9 5.7 5.8 10.3 14 12.9 23.2 2.7 9.6 4.9 10.4 16.7 6.7z m15.6 -55.8 c2 -0.9 7.1 -4.9 11.3 -9 8.3 -8.1 10.8 -9.5 21.2 -11.9 9.4 -2.2 14.3 -4.9 21.2 -12 4.3 -4.3 7.3 -8.8 10.2 -14.7 6.7 -13.7 6.7 -13.5 -1.9 -9.4 -13.8 6.5 -28 8.7 -42.9 6.6 l-8.6 -1.3 -5.4 5.4 c-9.8 9.5 -22.9 14.8 -37.1 14.8 -3.8 0 -6.8 0.2 -6.8 0.4 0 2 8.5 18 11 21 3.7 4.2 10.2 8.2 16.3 10.1 5.6 1.8 7.1 1.8 11.5 0z m-64.8 -33.3 c3.8 -1.9 6.7 -4.4 9.8 -8.5 4.9 -6.5 6.8 -7 13.4 -3.6 3.5 1.8 5.4 2.1 12.5 1.7 7.3 -0.4 9.3 -0.9 16 -4.4 10.4 -5.3 13.1 -8.9 14.2 -18.5 0.8 -7 2.2 -10.7 7.1 -18.4 1.1 -1.7 2.1 -4.5 2.2 -6.3 l0.3 -3.3 -28 -10.5 c-27 -10.2 -28.2 -10.5 -32.3 -9.5 -5.4 1.4 -15.7 1.4 -18.3 0.1 -2.4 -1.4 -2.5 -5.6 -0.1 -6.9 1 -0.6 3 -0.8 4.3 -0.5 3.6 0.7 -0.9 -1.1 -41.1 -16.7 -20.1 -7.7 -49.5 -19.2 -65.3 -25.5 -15.9 -6.3 -29 -11.4 -29.2 -11.4 -1.2 0 -2.5 12.2 -2.3 20.6 0.3 11.2 -0.8 10.3 10.3 8.4 4.6 -0.7 8.2 -0.6 16.3 0.7 8.3 1.3 10.9 1.4 13.6 0.5 5.1 -1.9 8.4 -1.5 9.2 1 1 3.1 -3.2 6.3 -10.1 7.9 -4.8 1.1 -7 1 -14.4 -0.4 -9.4 -1.8 -14.1 -1.4 -23.1 1.8 -2.5 0.9 -7.7 1.9 -11.5 2.2 -9 0.7 -14.1 -1.6 -18.8 -8.5 -5.1 -7.3 -10.7 -13.1 -15.6 -16 -6.4 -3.8 -20.8 -4.4 -30.9 -1.3 -7.7 2.3 -14.3 6.7 -17.3 11.4 -2.7 4.3 -2.2 15.1 1.1 22.2 1.9 4.1 2.4 7 2.6 15.9 0.3 9.6 0.6 11.6 3.1 16.5 4.6 9.1 12.4 13.4 27.5 15 6.4 0.7 7.2 1 11.6 5.4 6.5 6.3 12.5 8.8 21.3 8.8 3.8 0 7.4 -0.3 8 -0.7 1.6 -0.9 0.4 -8.5 -2.1 -14.2 -2.5 -5.6 -7.1 -10.7 -12.1 -13.2 -3.9 -2.1 -13.9 -4 -20.5 -4 -4.5 0 -6.4 -1.4 -6.4 -4.7 0 -3 2.8 -4.3 9.4 -4.3 16.5 0 29.7 7.2 36.3 19.7 3.2 6.1 3.9 8.4 5.3 17 1.7 10.4 5.9 13.3 19.1 13.3 6.4 0 9.3 -0.5 13.8 -2.4 3.1 -1.4 8.1 -3.2 11.1 -4 11.7 -3.2 19.3 -10.9 20.6 -20.8 0.6 -4.3 0.4 -4.7 -2.2 -6.4 -3.7 -2.5 -10.8 -2.4 -16.2 0 -3.5 1.6 -4.4 1.7 -5.7 0.6 -0.9 -0.8 -1.5 -2.5 -1.3 -3.9 0.7 -5.6 14.2 -10.5 22.2 -8.1 9.2 2.8 13.1 8 12.4 16.9 -0.8 11.2 -8.4 22.3 -18.5 27.2 l-4.6 2.2 5.4 2.4 c15.7 7 28 9.1 39.4 6.9 3.7 -0.7 4.4 -0.5 8.4 2.8 6.7 5.6 12.3 8.6 19.3 10.1 8 1.7 13.8 1.1 20.8 -2.3z m114 -31.1 c7.1 -2.2 18.6 -8.9 17.3 -10.1 -0.4 -0.3 -10.2 -4 -21.8 -8 -11.5 -4 -21.8 -7.7 -22.7 -8.2 -1.4 -0.7 -1.9 -0.1 -2.8 3.4 -0.6 2.4 -2.7 6.6 -4.7 9.5 -1.9 2.9 -3.7 7 -4 9.2 -0.5 3.9 -0.5 4 3.3 5 7.2 1.8 8.9 2 18.9 1.6 6.3 -0.2 12.4 -1.1 16.5 -2.4z m53.4 -20.2 c5.4 -4.2 1.4 -11.3 -7.9 -13.9 -4 -1.1 -4.5 -1.6 -4.5 -4.2 0 -1.6 2 -7.6 4.4 -13.2 14.7 -34.5 22.1 -71.8 19.6 -98.6 -4 -40.7 -21.2 -74.2 -51 -99.2 -26.8 -22.5 -59 -35.5 -96.4 -39 -20.8 -1.9 -45.9 1.3 -69.1 8.8 -9.7 3.2 -31.6 13.7 -40.5 19.4 -23.8 15.5 -46 38.9 -61.2 64.7 -3.4 5.7 -6.8 10.5 -7.7 10.7 -0.9 0.3 -14 3 -29.1 6.1 -15.1 3.1 -29 6.1 -30.8 6.6 -4.1 1.3 -5 4.6 -2.5 9.6 1.8 3.9 4.9 5.9 15.8 10.1 2.8 1.1 12.7 5.3 22 9.2 72.8 30.8 252.5 99.7 305.9 117.4 26.4 8.7 28.5 9.1 33 5.5z m-313.2 -69.1 c-0.2 -8 0.2 -14.6 1.1 -18.9 l1.4 -6.6 -27.5 -11.4 c-15.1 -6.3 -27.8 -11.5 -28.2 -11.7 -0.7 -0.3 -4.9 8.5 -7.5 15.8 -0.8 2.4 -4.2 7.2 -8.1 11.3 -3.6 3.9 -7 8 -7.6 9.1 -0.9 1.6 -0.8 1.8 0.8 1.1 12.2 -5.1 29.7 -6.2 39.7 -2.5 7.3 2.7 12.9 7 18.4 14 8.8 11.2 9.7 12 13.9 12 l3.9 0 -0.3 -12.2z"/>
  <path d="M251.2 317 c-5.9 -10.8 -15.3 -14.7 -28.3 -12 -6.4 1.4 -8.9 0.5 -8.9 -3.1 0 -3.4 4.6 -5.3 13.9 -5.7 13.6 -0.6 23.1 3.8 28.7 13.4 3.3 5.7 3 9.8 -0.9 10.2 -2.2 0.3 -3.1 -0.3 -4.5 -2.8z"/>
 </g>
 <g fill="#fdd604">
  <path d="M417 292.3 c-8.8 -1.6 -31.9 -9.3 -70.5 -23.3 -63.3 -22.9 -210.9 -80.4 -262 -102 -9.3 -3.9 -19.2 -8.1 -22 -9.2 -14.5 -5.7 -16.4 -7.4 -17.2 -15.3 -0.8 -6.6 0.2 -9.2 3.9 -10.4 1.8 -0.5 15.7 -3.5 30.8 -6.6 15.1 -3.1 28.2 -5.8 29.1 -6.1 0.9 -0.2 4.3 -5 7.7 -10.7 15.2 -25.8 37.4 -49.2 61.2 -64.7 9.7 -6.2 31.2 -16.4 42 -19.8 42.3 -13.3 85.8 -11.9 125.8 4 63.8 25.4 100.9 85.2 95.3 153.5 -2 24.6 -9 51.9 -19.6 76.7 l-4.4 10.1 4.2 1.4 c9 3 12.8 8.1 11.1 14.8 -1.4 5.7 -8.1 9 -15.4 7.6z"/>
 </g>
</svg>